<?xml version="1.0" encoding="utf-8"?>
<!-- Generator: Adobe Illustrator 24.2.1, SVG Export Plug-In . SVG Version: 6.00 Build 0)  -->
<svg version="1.1" id="Calque_1" xmlns="http://www.w3.org/2000/svg" xmlns:xlink="http://www.w3.org/1999/xlink" x="0px" y="0px"
	 viewBox="0 0 95 94.3" style="enable-background:new 0 0 95 94.3;" xml:space="preserve">
<style type="text/css">
	.st0{fill:#FCFCFC;}
</style>
<path class="st0" d="M61.5,54.3c1.2,1.2,1.2,3,0,4.2L49.6,70.4c-0.6,0.6-1.3,0.9-2.1,0.9S46,71,45.4,70.4L33.5,58.5
	c-1.2-1.2-1.2-3,0-4.2s3-1.2,4.2,0l6.8,6.8V26.7c0-1.6,1.3-3,3-3s3,1.3,3,3v34.4l6.8-6.8C58.4,53.1,60.3,53.1,61.5,54.3L61.5,54.3z
	 M95,47.5C95,73.7,73.7,95,47.5,95S0,73.7,0,47.5S21.3,0,47.5,0S95,21.3,95,47.5z M89.1,47.5c0-22.9-18.6-41.6-41.6-41.6
	S5.9,24.6,5.9,47.5s18.6,41.6,41.6,41.6S89.1,70.4,89.1,47.5z"/>
</svg>
