<?xml version="1.0" encoding="utf-8"?>
<!-- Generator: Adobe Illustrator 24.2.1, SVG Export Plug-In . SVG Version: 6.00 Build 0)  -->
<svg version="1.1" id="Calque_1" xmlns="http://www.w3.org/2000/svg" xmlns:xlink="http://www.w3.org/1999/xlink" x="0px" y="0px"
	 viewBox="0 0 47.4 47.2" style="enable-background:new 0 0 47.4 47.2;" xml:space="preserve">
<style type="text/css">
	.st0{fill:#FFFFFF;}
</style>
<g id="Calque_2_1_">
</g>
<g id="Calque_1_1_">
	<g>
		<path class="st0" d="M13.4,19.7c-0.7,0.7-0.7,1.9,0,2.6c0.7,0.7,1.9,0.7,2.6,0l5.3-5.3v18.9c0,1,0.8,1.9,1.9,1.9
			c1,0,1.9-0.8,1.9-1.9V17l5.3,5.3c0.7,0.7,1.9,0.7,2.6,0c0.3-0.3,0.5-0.8,0.5-1.3c0-0.5-0.2-0.9-0.5-1.3l-8.4-8.4
			c-0.3-0.3-0.8-0.5-1.3-0.5c-0.5,0-1,0.2-1.3,0.5L13.4,19.7z"/>
		<path class="st0" d="M0,24.2C0,37,10.4,47.4,23.2,47.4S46.4,37,46.4,24.2S36,1,23.2,1S0,11.4,0,24.2z M42.7,24.2
			c0,10.7-8.8,19.5-19.5,19.5S3.7,35,3.7,24.2S12.5,4.7,23.2,4.7S42.7,13.5,42.7,24.2z"/>
	</g>
</g>
</svg>
